<svg width="76" height="76" viewBox="0 0 76 76" fill="none" xmlns="http://www.w3.org/2000/svg">
<g clip-path="url(#clip0_196_589)">
<path d="M54.1983 25.4923C53.2904 25.7335 52.4744 26.2385 51.8535 26.9434C51.2326 27.6484 50.8346 28.5216 50.71 29.4527C50.5853 30.3838 50.7395 31.3309 51.1532 32.1744C51.5668 33.0178 52.2212 33.7197 53.0337 34.1912C53.8461 34.6627 54.7802 34.8828 55.7177 34.8235C56.6552 34.7642 57.5541 34.4283 58.3008 33.8582C59.0474 33.2881 59.6082 32.5094 59.9123 31.6206C60.2164 30.7318 60.2501 29.7727 60.0091 28.8648C59.8491 28.2617 59.5719 27.6961 59.1932 27.2003C58.8146 26.7044 58.342 26.288 57.8023 25.9748C57.2627 25.6616 56.6667 25.4578 56.0483 25.375C55.4299 25.2922 54.8013 25.3321 54.1983 25.4923Z" fill="#C0D2FF"/>
<path d="M38.3643 15.9923C37.4564 16.2335 36.6404 16.7385 36.0195 17.4434C35.3986 18.1484 35.0006 19.0216 34.876 19.9527C34.7513 20.8838 34.9056 21.8309 35.3192 22.6744C35.7328 23.5178 36.3872 24.2197 37.1997 24.6912C38.0121 25.1628 38.9462 25.3828 39.8837 25.3235C40.8212 25.2643 41.7201 24.9283 42.4667 24.3582C43.2134 23.7881 43.7742 23.0094 44.0782 22.1206C44.3823 21.2318 44.416 20.2728 44.1751 19.3648C44.0151 18.7617 43.7378 18.1961 43.3592 17.7003C42.9806 17.2044 42.5079 16.788 41.9683 16.4748C41.4287 16.1616 40.8327 15.9578 40.2143 15.875C39.5959 15.7922 38.9673 15.8321 38.3643 15.9923Z" fill="#C0D2FF"/>
<path d="M22.5313 25.4923C21.6234 25.7335 20.8074 26.2385 20.1865 26.9434C19.5656 27.6484 19.1676 28.5216 19.043 29.4527C18.9183 30.3838 19.0726 31.3309 19.4862 32.1744C19.8998 33.0178 20.5542 33.7197 21.3666 34.1912C22.1791 34.6627 23.1132 34.8828 24.0507 34.8235C24.9882 34.7642 25.8871 34.4283 26.6337 33.8582C27.3803 33.2881 27.9411 32.5094 28.2452 31.6206C28.5493 30.7318 28.583 29.7727 28.3421 28.8648C28.1821 28.2617 27.9048 27.6961 27.5262 27.2003C27.1475 26.7044 26.6749 26.288 26.1353 25.9748C25.5957 25.6616 24.9997 25.4578 24.3813 25.375C23.7629 25.2922 23.1342 25.3321 22.5313 25.4923Z" fill="#C0D2FF"/>
<path d="M22.5313 44.4923C21.6234 44.7335 20.8074 45.2385 20.1865 45.9434C19.5656 46.6484 19.1676 47.5216 19.043 48.4527C18.9183 49.3838 19.0726 50.3309 19.4862 51.1744C19.8998 52.0178 20.5542 52.7197 21.3666 53.1912C22.1791 53.6628 23.1132 53.8828 24.0507 53.8235C24.9882 53.7643 25.8871 53.4283 26.6337 52.8582C27.3803 52.2881 27.9411 51.5094 28.2452 50.6206C28.5493 49.7318 28.583 48.7728 28.3421 47.8648C28.1821 47.2617 27.9048 46.6961 27.5262 46.2003C27.1475 45.7044 26.6749 45.288 26.1353 44.9748C25.5957 44.6616 24.9997 44.4578 24.3813 44.375C23.7629 44.2922 23.1342 44.3321 22.5313 44.4923Z" fill="#C0D2FF"/>
<path d="M39.5842 0.0209988C34.4858 -0.156277 29.4039 0.694834 24.6415 2.52359C19.8791 4.35235 15.5337 7.1213 11.8643 10.6654C8.19495 14.2095 5.27675 18.4561 3.2837 23.1521C1.29065 27.8481 0.263567 32.8974 0.263672 37.9988C0.275405 48.0735 4.28273 57.7321 11.4066 64.8559C18.5304 71.9798 28.189 75.9871 38.2637 75.9988C39.334 75.9988 40.3853 75.9292 41.4303 75.8405C42.2233 75.7737 42.962 75.4108 43.4995 74.824C44.0369 74.2372 44.3338 73.4696 44.331 72.6738L44.2297 61.3118C44.204 59.0666 44.8481 56.8646 46.0798 54.9871C47.3114 53.1097 49.0746 51.6419 51.1443 50.7712C53.2141 49.9005 55.4963 49.6664 57.6997 50.0988C59.9031 50.5312 61.9276 51.6105 63.5147 53.1988L63.8313 53.5155C64.5502 54.2405 65.4408 54.772 66.4202 55.0604C67.3996 55.3489 68.4361 55.385 69.4332 55.1653C70.4142 54.9594 71.3277 54.5102 72.0896 53.8589C72.8516 53.2076 73.4376 52.3752 73.7937 51.4382C75.542 46.8474 76.3778 41.9597 76.2542 37.0488C75.8978 27.4032 71.9305 18.2435 65.1385 11.3853C58.3466 4.52711 49.2259 0.471022 39.5842 0.0209988ZM68.0272 48.7877L67.9828 48.7433C65.5076 46.2722 62.3532 44.5932 58.921 43.92C55.4888 43.2468 51.9339 43.6097 48.7086 44.9627C45.4832 46.3156 42.7332 48.5974 40.8084 51.5177C38.8837 54.4381 37.8711 57.865 37.8995 61.3625L37.9755 69.6655C29.577 69.6277 21.5375 66.2552 15.6255 60.2898C9.7136 54.3244 6.41355 46.2549 6.45134 37.8563C6.48913 29.4578 9.86168 21.4183 15.8271 15.5064C21.7924 9.59443 29.862 6.29437 38.2605 6.33217C38.631 6.33217 39.0047 6.33217 39.3783 6.35117C47.4102 6.72842 55.0073 10.1092 60.6642 15.8235C66.321 21.5378 69.6248 29.1687 69.9208 37.204C70.0254 41.142 69.3861 45.0644 68.0367 48.7655L68.0272 48.7877Z" fill="#C0D2FF"/>
</g>
<defs>
<clipPath id="clip0_196_589">
<rect width="76" height="76" fill="white"/>
</clipPath>
</defs>
</svg>
