<svg width="74" height="74" viewBox="0 0 74 74" fill="none" xmlns="http://www.w3.org/2000/svg">
<g clip-path="url(#clip0_194_104)">
<path d="M73.1213 7.04511C72.5359 6.4618 71.7431 6.13428 70.9167 6.13428C70.0903 6.13428 69.2976 6.4618 68.7121 7.04511L54.0231 21.7341L53.0365 20.769C50.4352 18.2282 47.0206 16.6869 43.3944 16.4168C39.7681 16.1466 36.1629 17.1648 33.2137 19.2921C28.9573 22.5018 24.226 25.0277 19.1907 26.7784L12.7959 28.6531C10.7179 29.2631 8.79043 30.301 7.13741 31.7002C5.48438 33.0994 4.14233 34.8289 3.19748 36.7777C2.26818 38.6999 1.75059 40.7951 1.67785 42.929C1.60511 45.0629 1.97882 47.1884 2.77506 49.1695C5.79296 56.5781 10.9666 62.9093 17.6254 67.3426C24.2842 71.776 32.1211 74.107 40.1204 74.0335H42.9694C43.6069 74.0331 44.2289 73.8372 44.7516 73.4724C50.1788 69.9297 54.8173 65.3059 58.377 59.8899C61.9368 54.4739 64.3414 48.3819 65.4407 41.9946C65.8231 39.5523 65.616 37.054 64.8367 34.708C64.0573 32.3619 62.7284 30.2362 60.9606 28.5082L58.494 26.0908L73.1306 11.4543C73.7126 10.8676 74.0385 10.0742 74.0368 9.24778C74.035 8.42136 73.7058 7.62931 73.1213 7.04511V7.04511ZM41.9581 67.7867H40.1081C35.5522 67.793 31.0394 66.9057 26.8251 65.1751L26.859 65.1566C32.2514 62.4509 36.8678 58.4192 40.2746 53.44L41.8717 51.0935C42.337 50.4107 42.512 49.571 42.3582 48.7592C42.2044 47.9473 41.7344 47.2299 41.0516 46.7646C40.3687 46.2993 39.529 46.1243 38.7172 46.2781C37.9054 46.4319 37.1879 46.9019 36.7226 47.5847L35.1254 49.9311C32.3109 54.0368 28.5001 57.3607 24.0501 59.5912L20.1928 61.5337C17.1068 59.3644 14.4134 56.6846 12.2286 53.6095C17.2821 51.9094 21.8926 49.1032 25.7243 45.3956C26.3155 44.8174 26.6529 44.0281 26.6621 43.2012C26.6714 42.3743 26.3518 41.5776 25.7736 40.9864C25.1955 40.3952 24.4062 40.0578 23.5793 40.0486C22.7524 40.0393 21.9557 40.3589 21.3645 40.9371C17.9139 44.2805 13.7025 46.7354 9.09281 48.0904C8.90473 47.6741 8.70123 47.2671 8.53164 46.8386C8.05411 45.6658 7.83056 44.4052 7.87574 43.1398C7.92091 41.8743 8.23378 40.6328 8.79373 39.4971C9.3606 38.331 10.1645 37.296 11.1542 36.4582C12.1438 35.6204 13.2973 34.9983 14.5411 34.6317L20.9328 32.757C24.6419 31.5654 28.1899 29.9209 31.4963 27.8607L55.9009 51.6393C52.6583 58.0941 47.8682 63.6458 41.9581 67.799V67.7867ZM59.2864 41.0141C59.0507 42.4567 58.7326 43.8845 58.3336 45.2907L36.8397 24.358C38.4166 23.2247 40.3091 22.6143 42.251 22.6128C44.6531 22.6098 46.9605 23.5498 48.6766 25.2306L56.5977 32.9667C57.6552 33.999 58.4509 35.2689 58.9185 36.6708C59.3862 38.0727 59.5123 39.566 59.2864 41.0265V41.0141Z" fill="#415179"/>
</g>
<defs>
<clipPath id="clip0_194_104">
<rect width="74" height="74" fill="white"/>
</clipPath>
</defs>
</svg>
