<svg width="69" height="69" viewBox="0 0 69 69" fill="none" xmlns="http://www.w3.org/2000/svg">
<g clip-path="url(#clip0_194_106)">
<path d="M12.8369 8.97581L17.5979 4.20906C18.9299 2.87021 20.5143 1.80883 22.2593 1.08636C24.0043 0.363887 25.8752 -0.00533598 27.7639 5.82631e-05H46C49.8111 0.00462335 53.4648 1.52059 56.1596 4.21544C58.8545 6.91029 60.3704 10.564 60.375 14.3751V54.6251C60.3704 58.4361 58.8545 62.0898 56.1596 64.7847C53.4648 67.4795 49.8111 68.9955 46 69.0001H23C19.1889 68.9955 15.5352 67.4795 12.8404 64.7847C10.1455 62.0898 8.62957 58.4361 8.625 54.6251V19.1389C8.62036 17.2506 8.99022 15.3801 9.71318 13.6356C10.4361 11.8911 11.4978 10.3073 12.8369 8.97581V8.97581ZM16.9021 13.0411C16.4943 13.4474 16.1292 13.8944 15.8125 14.3751H23V7.18756C22.5201 7.5076 22.0723 7.87349 21.6631 8.28006L16.9021 13.0411ZM14.375 54.6251C14.375 56.9126 15.2837 59.1064 16.9012 60.7239C18.5187 62.3414 20.7125 63.2501 23 63.2501H46C48.2875 63.2501 50.4813 62.3414 52.0988 60.7239C53.7163 59.1064 54.625 56.9126 54.625 54.6251V14.3751C54.625 12.0876 53.7163 9.89376 52.0988 8.27626C50.4813 6.65876 48.2875 5.75006 46 5.75006H28.75V14.3751C28.75 15.9001 28.1442 17.3626 27.0659 18.4409C25.9875 19.5193 24.525 20.1251 23 20.1251H14.375V54.6251ZM23 25.8751C22.2375 25.8751 21.5062 26.178 20.9671 26.7171C20.4279 27.2563 20.125 27.9876 20.125 28.7501C20.125 29.5126 20.4279 30.2438 20.9671 30.783C21.5062 31.3222 22.2375 31.6251 23 31.6251H46C46.7625 31.6251 47.4938 31.3222 48.0329 30.783C48.5721 30.2438 48.875 29.5126 48.875 28.7501C48.875 27.9876 48.5721 27.2563 48.0329 26.7171C47.4938 26.178 46.7625 25.8751 46 25.8751H23ZM20.125 40.2501C20.125 41.0126 20.4279 41.7438 20.9671 42.283C21.5062 42.8222 22.2375 43.1251 23 43.1251H46C46.7625 43.1251 47.4938 42.8222 48.0329 42.283C48.5721 41.7438 48.875 41.0126 48.875 40.2501C48.875 39.4876 48.5721 38.7563 48.0329 38.2171C47.4938 37.678 46.7625 37.3751 46 37.3751H23C22.2375 37.3751 21.5062 37.678 20.9671 38.2171C20.4279 38.7563 20.125 39.4876 20.125 40.2501ZM20.677 50.0624C20.2301 50.6773 20.0448 51.444 20.1617 52.1951C20.2787 52.9461 20.6882 53.6203 21.3009 54.0702C24.2138 56.1458 27.6638 57.3368 31.2369 57.5001C33.3245 57.49 35.3486 56.7815 36.9869 55.4876C37.9299 54.8407 38.2892 54.6251 38.9994 54.6251C40.9215 54.9225 42.7351 55.7085 44.2664 56.9078C44.8737 57.3408 45.6256 57.5207 46.3631 57.4097C47.1007 57.2987 47.7663 56.9054 48.2193 56.3129C48.6723 55.7203 48.8772 54.9749 48.7909 54.234C48.7046 53.4932 48.3337 52.8148 47.7566 52.3423C45.2232 50.3756 42.1812 49.1728 38.9879 48.8751C37.0727 48.9056 35.2213 49.5676 33.7209 50.7582C33.037 51.3733 32.1564 51.7249 31.2369 51.7501C28.8861 51.5739 26.6255 50.7708 24.6905 49.4242C24.0735 48.977 23.3042 48.793 22.5517 48.9126C21.7991 49.0323 21.1248 49.4459 20.677 50.0624V50.0624Z" fill="#415179"/>
</g>
<defs>
<clipPath id="clip0_194_106">
<rect width="69" height="69" fill="white" transform="matrix(-1 0 0 1 69 0)"/>
</clipPath>
</defs>
</svg>
