<svg width="82" height="82" viewBox="0 0 82 82" fill="none" xmlns="http://www.w3.org/2000/svg">
<g clip-path="url(#clip0_196_580)">
<path d="M41.0007 27.3354C38.2976 27.3354 35.6553 28.137 33.4079 29.6387C31.1604 31.1404 29.4087 33.2749 28.3743 35.7721C27.3399 38.2694 27.0693 41.0173 27.5966 43.6684C28.1239 46.3194 29.4255 48.7546 31.3369 50.6659C33.2482 52.5772 35.6834 53.8789 38.3344 54.4062C40.9855 54.9335 43.7334 54.6629 46.2307 53.6285C48.7279 52.5941 50.8624 50.8424 52.3641 48.5949C53.8658 46.3474 54.6673 43.7051 54.6673 41.0021C54.6673 37.3775 53.2274 33.9013 50.6645 31.3383C48.1015 28.7753 44.6253 27.3354 41.0007 27.3354ZM41.0007 47.8354C39.6492 47.8354 38.328 47.4347 37.2043 46.6838C36.0805 45.933 35.2047 44.8657 34.6875 43.6171C34.1703 42.3685 34.035 40.9945 34.2986 39.669C34.5623 38.3435 35.2131 37.1259 36.1688 36.1702C37.1244 35.2146 38.342 34.5637 39.6675 34.3001C40.9931 34.0364 42.367 34.1717 43.6157 34.6889C44.8643 35.2061 45.9315 36.082 46.6824 37.2057C47.4332 38.3295 47.834 39.6506 47.834 41.0021C47.834 42.8144 47.1141 44.5525 45.8326 45.834C44.5511 47.1155 42.813 47.8354 41.0007 47.8354Z" fill="#C0D2FF"/>
<path d="M72.7545 47.4917L71.2375 46.617C71.9204 42.9012 71.9204 39.092 71.2375 35.3762L72.7545 34.5015C73.9211 33.8285 74.9436 32.9323 75.7639 31.864C76.5841 30.7958 77.1859 29.5765 77.5349 28.2757C77.8839 26.9749 77.9732 25.6181 77.7979 24.2828C77.6225 22.9475 77.1858 21.6597 76.5128 20.4932C75.8398 19.3266 74.9436 18.304 73.8754 17.4838C72.8071 16.6636 71.5878 16.0618 70.287 15.7128C68.9862 15.3638 67.6294 15.2744 66.2941 15.4498C64.9588 15.6251 63.6711 16.0618 62.5045 16.7348L60.9841 17.6129C58.1125 15.1595 54.8124 13.2575 51.25 12.0028V10.25C51.25 7.53153 50.1701 4.9244 48.2478 3.00216C46.3256 1.07991 43.7184 0 41 0C38.2815 0 35.6744 1.07991 33.7521 3.00216C31.8299 4.9244 30.75 7.53153 30.75 10.25V12.0028C27.1877 13.262 23.8888 15.1686 21.0193 17.6266L19.492 16.7417C17.136 15.3824 14.3366 15.0148 11.7095 15.7196C9.08243 16.4244 6.84295 18.144 5.48371 20.5C4.12448 22.856 3.75684 25.6555 4.46166 28.2825C5.16648 30.9096 6.88604 33.1491 9.24205 34.5083L10.759 35.383C10.0761 39.0988 10.0761 42.908 10.759 46.6238L9.24205 47.4985C6.88604 48.8577 5.16648 51.0972 4.46166 53.7243C3.75684 56.3514 4.12448 59.1508 5.48371 61.5068C6.84295 63.8628 9.08243 65.5824 11.7095 66.2872C14.3366 66.9921 17.136 66.6244 19.492 65.2652L21.0125 64.3871C23.8851 66.8409 27.1863 68.7429 30.75 69.9973V71.75C30.75 74.4685 31.8299 77.0756 33.7521 78.9978C35.6744 80.9201 38.2815 82 41 82C43.7184 82 46.3256 80.9201 48.2478 78.9978C50.1701 77.0756 51.25 74.4685 51.25 71.75V69.9973C54.8122 68.738 58.1112 66.8314 60.9806 64.3734L62.5079 65.2549C64.8639 66.6142 67.6634 66.9818 70.2904 66.277C72.9175 65.5722 75.157 63.8526 76.5162 61.4966C77.8755 59.1406 78.2431 56.3411 77.5383 53.714C76.8335 51.087 75.1139 48.8475 72.7579 47.4883L72.7545 47.4917ZM64.0488 34.5903C65.2058 38.7828 65.2058 43.2104 64.0488 47.4028C63.8468 48.1325 63.8929 48.9087 64.1798 49.6094C64.4667 50.31 64.9783 50.8955 65.6341 51.2739L69.3378 53.4128C70.123 53.8658 70.696 54.6123 70.9309 55.4878C71.1657 56.3634 71.0431 57.2964 70.59 58.0816C70.1369 58.8668 69.3905 59.4398 68.5149 59.6747C67.6393 59.9095 66.7063 59.7869 65.9211 59.3338L62.2106 57.1882C61.5543 56.808 60.7901 56.6571 60.0385 56.7592C59.2869 56.8612 58.5906 57.2105 58.0594 57.7519C55.0183 60.8565 51.187 63.0716 46.9791 64.1582C46.2447 64.347 45.5939 64.7748 45.1293 65.3742C44.6648 65.9736 44.4128 66.7106 44.4132 67.4689V71.75C44.4132 72.6562 44.0532 73.5252 43.4125 74.166C42.7718 74.8067 41.9027 75.1667 40.9965 75.1667C40.0904 75.1667 39.2214 74.8067 38.5806 74.166C37.9399 73.5252 37.5799 72.6562 37.5799 71.75V67.4723C37.5803 66.714 37.3283 65.977 36.8638 65.3776C36.3992 64.7782 35.7484 64.3504 35.014 64.1616C30.8058 63.0706 26.9757 60.8507 23.9371 57.7417C23.4059 57.2002 22.7097 56.851 21.958 56.7489C21.2064 56.6468 20.4422 56.7978 19.7859 57.1779L16.0822 59.3202C15.6935 59.548 15.2635 59.6968 14.8171 59.7578C14.3707 59.8189 13.9166 59.791 13.4809 59.6758C13.0453 59.5607 12.6368 59.3605 12.2789 59.0868C11.9209 58.8131 11.6207 58.4713 11.3954 58.081C11.1701 57.6908 11.0242 57.2599 10.9661 56.8131C10.908 56.3662 10.9389 55.9123 11.0569 55.4775C11.175 55.0426 11.3779 54.6354 11.654 54.2793C11.9301 53.9232 12.2738 53.6252 12.6655 53.4025L16.3692 51.2637C17.025 50.8853 17.5366 50.2998 17.8236 49.5991C18.1105 48.8984 18.1566 48.1223 17.9545 47.3926C16.7975 43.2001 16.7975 38.7726 17.9545 34.5801C18.1529 33.8519 18.1047 33.0786 17.8172 32.3807C17.5298 31.6829 17.0195 31.0999 16.3658 30.7227L12.6621 28.5838C11.8769 28.1308 11.3039 27.3843 11.0691 26.5087C10.8342 25.6332 10.9568 24.7001 11.4099 23.915C11.863 23.1298 12.6094 22.5567 13.485 22.3219C14.3606 22.0871 15.2936 22.2097 16.0788 22.6628L19.7893 24.8084C20.4439 25.1894 21.2065 25.3421 21.9573 25.2426C22.7081 25.143 23.4045 24.7968 23.9371 24.2583C26.9783 21.1538 30.8095 18.9387 35.0174 17.8521C35.7541 17.6627 36.4066 17.2328 36.8714 16.6306C37.3362 16.0284 37.5867 15.2884 37.5833 14.5277V10.25C37.5833 9.34384 37.9433 8.4748 38.584 7.83405C39.2248 7.1933 40.0938 6.83333 41 6.83333C41.9061 6.83333 42.7752 7.1933 43.4159 7.83405C44.0567 8.4748 44.4166 9.34384 44.4166 10.25V14.5277C44.4163 15.286 44.6682 16.023 45.1327 16.6224C45.5973 17.2218 46.2481 17.6496 46.9826 17.8384C51.1919 18.9289 55.0233 21.1488 58.0628 24.2583C58.594 24.7998 59.2903 25.149 60.0419 25.2511C60.7935 25.3532 61.5577 25.2022 62.2141 24.8221L65.9177 22.6798C66.3064 22.452 66.7364 22.3032 67.1828 22.2422C67.6293 22.1811 68.0834 22.209 68.519 22.3242C68.9546 22.4393 69.3632 22.6395 69.7211 22.9132C70.079 23.1869 70.3793 23.5287 70.6046 23.919C70.8299 24.3092 70.9758 24.7401 71.0339 25.1869C71.0919 25.6338 71.061 26.0877 70.943 26.5225C70.8249 26.9574 70.622 27.3646 70.346 27.7207C70.0699 28.0768 69.7261 28.3748 69.3344 28.5975L65.6307 30.7363C64.9783 31.1146 64.4694 31.698 64.1832 32.3958C63.8971 33.0935 63.8498 33.8663 64.0488 34.5938V34.5903Z" fill="#C0D2FF"/>
</g>
<defs>
<clipPath id="clip0_196_580">
<rect width="82" height="82" fill="white"/>
</clipPath>
</defs>
</svg>
