<svg width="70" height="70" viewBox="0 0 70 70" fill="none" xmlns="http://www.w3.org/2000/svg">
<g clip-path="url(#clip0_194_105)">
<path d="M52.4833 6.66795C48.9233 3.48745 44.5633 1.33798 39.8726 0.450872C35.1819 -0.436239 30.3381 -0.0274069 25.8625 1.63337C21.3868 3.29415 17.4488 6.14399 14.4722 9.8762C11.4956 13.6084 9.59317 18.0817 8.96956 22.8146C8.4095 26.9646 8.85742 31.1884 10.2754 35.1286C11.6934 39.0688 14.0397 42.6095 17.1158 45.4509C19.0181 47.119 20.553 49.1641 21.6235 51.4566C22.6939 53.7491 23.2764 56.2389 23.3341 58.7684V59.2379C23.3372 62.0914 24.4721 64.8271 26.4898 66.8448C28.5075 68.8625 31.2432 69.9974 34.0966 70.0005H35.905C38.7584 69.9974 41.4941 68.8625 43.5118 66.8448C45.5295 64.8271 46.6644 62.0914 46.6675 59.2379V57.6367C46.7111 55.401 47.2373 53.201 48.2098 51.1875C49.1824 49.1739 50.5784 47.3941 52.3025 45.97C55.0984 43.5213 57.342 40.5065 58.8847 37.1252C60.4275 33.7439 61.2341 30.0734 61.2512 26.3568C61.2683 22.6403 60.4955 18.9625 58.9839 15.5672C57.4723 12.1718 55.2565 9.13644 52.4833 6.66211V6.66795ZM35.905 64.1671H34.0966C32.7898 64.1656 31.537 63.6458 30.6129 62.7217C29.6888 61.7976 29.169 60.5448 29.1675 59.2379C29.1675 59.2379 29.1471 58.4796 29.1441 58.3338H40.8341V59.2379C40.8326 60.5448 40.3128 61.7976 39.3887 62.7217C38.4647 63.6458 37.2118 64.1656 35.905 64.1671ZM48.4466 41.5892C45.1258 44.4695 42.7276 48.2647 41.5516 52.5005H37.9175V31.5471C39.6176 30.946 41.0905 29.8344 42.1347 28.3642C43.1789 26.894 43.7433 25.137 43.7508 23.3338C43.7508 22.5602 43.4435 21.8184 42.8965 21.2714C42.3496 20.7244 41.6077 20.4171 40.8341 20.4171C40.0606 20.4171 39.3187 20.7244 38.7717 21.2714C38.2248 21.8184 37.9175 22.5602 37.9175 23.3338C37.9175 24.1073 37.6102 24.8492 37.0632 25.3962C36.5162 25.9432 35.7744 26.2505 35.0008 26.2505C34.2273 26.2505 33.4854 25.9432 32.9384 25.3962C32.3914 24.8492 32.0841 24.1073 32.0841 23.3338C32.0841 22.5602 31.7769 21.8184 31.2299 21.2714C30.6829 20.7244 29.941 20.4171 29.1675 20.4171C28.3939 20.4171 27.6521 20.7244 27.1051 21.2714C26.5581 21.8184 26.2508 22.5602 26.2508 23.3338C26.2583 25.137 26.8227 26.894 27.8669 28.3642C28.9111 29.8344 30.384 30.946 32.0841 31.5471V52.5005H28.2283C26.9129 48.1523 24.4457 44.241 21.0883 41.1809C18.2386 38.5255 16.2079 35.1104 15.2359 31.3385C14.2639 27.5667 14.3912 23.5955 15.6027 19.8936C16.8142 16.1917 19.0593 12.9136 22.0732 10.4461C25.087 7.97863 28.7438 6.4248 32.6121 5.96795C33.4139 5.87843 34.2202 5.83364 35.0271 5.83378C40.0366 5.81889 44.8728 7.66727 48.5954 11.0196C50.7528 12.9434 52.4767 15.3039 53.6527 17.9444C54.8288 20.585 55.4301 23.4454 55.4169 26.336C55.4036 29.2266 54.7761 32.0813 53.576 34.711C52.3758 37.3407 50.6304 39.6852 48.4554 41.5892H48.4466Z" fill="#415179"/>
</g>
<defs>
<clipPath id="clip0_194_105">
<rect width="70" height="70" fill="white"/>
</clipPath>
</defs>
</svg>
