<svg width="59" height="55" viewBox="0 0 59 55" fill="none" xmlns="http://www.w3.org/2000/svg">
<path d="M8.86025 30.1978C8.49718 29.8344 8.20901 29.4021 8.01235 28.9257C7.8157 28.4494 7.71445 27.9384 7.71445 27.4224C7.71445 26.9063 7.8157 26.3954 8.01235 25.9191C8.20901 25.4427 8.49718 25.0104 8.86025 24.647L26.6399 6.74367C27.003 6.38028 27.2912 5.94794 27.4878 5.47159C27.6845 4.99524 27.7857 4.48431 27.7857 3.96827C27.7857 3.45223 27.6845 2.9413 27.4878 2.46495C27.2912 1.9886 27.003 1.55626 26.6399 1.19287C25.9142 0.464807 24.9324 0.0561523 23.9091 0.0561523C22.8857 0.0561523 21.9039 0.464807 21.1782 1.19287L3.39851 19.1353C1.22233 21.3341 0 24.3147 0 27.4224C0 30.5301 1.22233 33.5107 3.39851 35.7095L21.1782 53.6519C21.8997 54.3741 22.8735 54.7812 23.8897 54.7855C24.3995 54.7885 24.9048 54.6899 25.3768 54.4954C25.8487 54.3008 26.278 54.0142 26.6399 53.6519C27.003 53.2885 27.2912 52.8562 27.4878 52.3798C27.6845 51.9035 27.7857 51.3925 27.7857 50.8765C27.7857 50.3605 27.6845 49.8495 27.4878 49.3732C27.2912 48.8968 27.003 48.4645 26.6399 48.1011L8.86025 30.1978Z" fill="#C0D2FF"/>
<rect x="2.52637" y="23.6318" width="55.5714" height="6.73593" rx="3.36797" fill="#C0D2FF"/>
</svg>
