<svg width="74" height="64" viewBox="0 0 74 64" fill="none" xmlns="http://www.w3.org/2000/svg">
<path d="M70.9168 64C70.0991 64 69.3149 63.6725 68.7367 63.0894C68.1585 62.5064 67.8337 61.7156 67.8337 60.891C67.8288 55.9452 65.8782 51.2034 62.4101 47.7062C58.9419 44.209 54.2395 42.2421 49.3347 42.2372H31.3599V47.168C31.3597 48.3976 30.9979 49.5995 30.3203 50.6218C29.6427 51.6441 28.6798 52.4409 27.5532 52.9114C26.4266 53.3819 25.1869 53.505 23.991 53.2652C22.795 53.0254 21.6964 52.4334 20.834 51.5641L2.70812 33.2865C0.974112 31.5374 0 29.1655 0 26.6923C0 24.2192 0.974112 21.8472 2.70812 20.0982L20.834 1.82053C21.6964 0.951206 22.795 0.359217 23.991 0.119406C25.1869 -0.120405 26.4266 0.00272882 27.5532 0.473241C28.6798 0.943753 29.6427 1.74052 30.3203 2.76281C30.9979 3.7851 31.3597 4.98702 31.3599 6.21662V11.1475H46.2516C53.6084 11.1557 60.6616 14.1063 65.8637 19.3519C71.0657 24.5975 73.9918 31.7098 74 39.1282V60.891C74 61.7156 73.6752 62.5064 73.097 63.0894C72.5188 63.6725 71.7346 64 70.9168 64ZM25.1936 6.21662L7.06771 24.4943C6.4897 25.0773 6.165 25.8679 6.165 26.6923C6.165 27.5167 6.4897 28.3073 7.06771 28.8904L25.1936 47.168V39.1282C25.1936 38.3037 25.5184 37.5129 26.0966 36.9298C26.6748 36.3468 27.4591 36.0192 28.2768 36.0192H49.3347C52.8359 36.0182 56.2971 36.7703 59.4871 38.2253C62.6771 39.6804 65.5226 41.8049 67.8337 44.457V39.1282C67.8272 33.3584 65.5512 27.8267 61.5052 23.7469C57.4592 19.667 51.9735 17.372 46.2516 17.3654H28.2768C27.4591 17.3654 26.6748 17.0378 26.0966 16.4548C25.5184 15.8718 25.1936 15.081 25.1936 14.2564V6.21662Z" fill="#415179"/>
</svg>
